Coordinates
version=1
nRows=28
nColumns=33
inDegrees=yes

Units are S.I. units (second, meters, Newtons, ...)
Angles are in degrees.

endheader
time	ground_thorax_rot_x	ground_thorax_rot_y	ground_thorax_rot_z	ground_thorax_tx	ground_thorax_ty	ground_thorax_tz	clav_prot_r	clav_elev_r	scapula_abduction_r	scapula_elevation_r	scapula_upward_rot_r	scapula_winging_r	shoulder_elv_r	plane_of_elev_r	axial_rot_r	elbow_flexion_r	pro_sup_r	wrist_flex_r	wrist_dev_r	clav_prot_l	clav_elev_l	scapula_abduction_l	scapula_elevation_l	scapula_upward_rot_l	scapula_winging_l	shoulder_elv_l	plane_of_elev_l	axial_rot_l	elbow_flexion_l	pro_sup_l	wrist_flex_l	wrist_dev_l	
9.8200	-38.083050	-14.430482	23.971116	-266.358112	828.741987	7.130493	7.418071	-45.000000	35.979664	-45.000000	-44.984563	2055.319136	-1727.816776	33.027734	68.220265	2179.783630	91.897014	12.199823	2.420208	13.495380	37.054687	-34.059119	-45.000000	-45.000000	-2073.113609	2065.385662	137.323185	163.551944	1451.150371	-331.437948	1.325587	-18.141349	
9.8300	-38.071188	-14.507831	24.032864	-266.280581	828.615951	7.170076	7.467655	-45.000000	35.958312	-45.000000	-44.968112	2055.308071	-1727.821860	33.046991	68.181387	2179.764742	91.901973	12.181414	2.427934	13.481666	37.045115	-34.039928	-45.000000	-45.000000	-2073.123855	2065.377916	137.335039	163.622014	1451.135404	-331.439919	1.319007	-18.124544	
9.8400	-38.050600	-14.578019	24.089295	-266.196809	828.487540	7.208593	7.525985	-45.000000	35.961143	-45.000000	-44.954703	2055.325161	-1727.810157	33.037454	68.161965	2179.757519	91.904783	12.165644	2.447912	13.485958	37.030948	-33.999937	-45.000000	-45.000000	-2073.142445	2065.377385	137.326512	163.700578	1451.121184	-331.446380	1.300940	-18.095893	
9.8500	-38.032900	-14.634327	24.134260	-266.098391	828.355472	7.245321	7.553718	-45.000000	35.960599	-45.000000	-44.943805	2055.336199	-1727.806279	33.042901	68.119258	2179.753474	91.913265	12.157154	2.450657	13.485078	37.022970	-33.972176	-45.000000	-45.000000	-2073.155788	2065.371025	137.315206	163.774355	1451.110926	-331.454399	1.292647	-18.081624	
9.8600	-38.014778	-14.676812	24.172127	-265.985602	828.219705	7.279122	7.569571	-45.000000	35.962345	-45.000000	-44.945609	2055.343026	-1727.805964	33.059590	68.059569	2179.752379	91.926717	12.149619	2.445254	13.480052	37.017131	-33.956363	-45.000000	-45.000000	-2073.169936	2065.360402	137.305491	163.849132	1451.106972	-331.465543	1.288692	-18.075358	
9.8700	-37.994174	-14.713292	24.210005	-265.857167	828.080651	7.308636	7.572394	-45.000000	35.969293	-45.000000	-44.947259	2055.359067	-1727.798128	33.065430	67.983519	2179.757232	91.945611	12.148216	2.436670	13.484944	37.012536	-33.930436	-45.000000	-45.000000	-2073.176676	2065.361155	137.274395	163.925696	1451.108866	-331.481533	1.282840	-18.072285	
9.8800	-37.975380	-14.740192	24.246534	-265.713438	827.939884	7.332273	7.573417	-45.000000	35.973429	-45.000000	-44.954629	2055.364448	-1727.795797	33.084084	67.891319	2179.761551	91.971160	12.142871	2.423880	13.484219	37.008855	-33.918616	-45.000000	-45.000000	-2073.182431	2065.363712	137.248091	164.008545	1451.114891	-331.501072	1.280207	-18.075509	
9.8900	-37.953111	-14.773545	24.300524	-265.554999	827.800090	7.348462	7.575254	-45.000000	35.973586	-45.000000	-44.955511	2055.373555	-1727.784000	33.086356	67.785750	2179.765182	92.003026	12.137140	2.415773	13.492185	37.005084	-33.899440	-45.000000	-45.000000	-2073.181651	2065.378604	137.211144	164.103111	1451.120405	-331.525487	1.272011	-18.076556	
9.9000	-37.937524	-14.791353	24.344641	-265.380915	827.664553	7.355808	7.583126	-45.000000	35.968365	-45.000000	-44.933532	2055.363321	-1727.786880	33.103022	67.671282	2179.765527	92.041541	12.125988	2.405170	13.489066	37.001171	-33.901219	-45.000000	-45.000000	-2073.185077	2065.392435	137.184030	164.206135	1451.130596	-331.552819	1.268092	-18.084672	
9.9100	-37.920607	-14.812034	24.391302	-265.189045	827.536974	7.353308	7.590089	-45.000000	35.964637	-45.000000	-44.901972	2055.359527	-1727.783364	33.109656	67.559584	2179.771469	92.084554	12.115359	2.396173	13.493174	36.998622	-33.896230	-45.000000	-45.000000	-2073.188190	2065.414033	137.150234	164.324911	1451.141176	-331.585335	1.261975	-18.093792	
9.9200	-37.904339	-14.820761	24.416200	-264.976336	827.421259	7.340520	7.600815	-45.000000	35.967149	-45.000000	-44.877336	2055.348539	-1727.790084	33.142725	67.436289	2179.775443	92.133042	12.097504	2.386076	13.487235	36.993795	-33.907305	-45.000000	-45.000000	-2073.196342	2065.418886	137.124814	164.451603	1451.155672	-331.622155	1.262919	-18.111189	
9.9300	-37.881591	-14.841329	24.446944	-264.738836	827.321386	7.317598	7.610128	-45.000000	35.974382	-45.000000	-44.878227	2055.353189	-1727.778872	33.171677	67.297990	2179.787568	92.185318	12.085140	2.374934	13.489116	36.993823	-33.910031	-45.000000	-45.000000	-2073.205733	2065.428252	137.098642	164.591353	1451.171253	-331.667825	1.262220	-18.130132	
9.9400	-37.860858	-14.850012	24.455367	-264.471725	827.240727	7.285421	7.622425	-45.000000	35.995936	-45.000000	-44.888213	2055.354697	-1727.773974	33.218403	67.135599	2179.804056	92.240257	12.071338	2.361270	13.485134	36.989287	-33.925472	-45.000000	-45.000000	-2073.214838	2065.432390	137.068537	164.736137	1451.192955	-331.724380	1.267571	-18.156435	
9.9500	-37.835232	-14.874498	24.477146	-264.169473	827.182067	7.245391	7.632711	-45.000000	36.023035	-45.000000	-44.919613	2055.372333	-1727.750325	33.252975	66.960179	2179.831761	92.294737	12.067365	2.343533	13.491212	36.991324	-33.931320	-45.000000	-45.000000	-2073.224549	2065.454507	137.035507	164.898081	1451.213355	-331.797700	1.271951	-18.183733	
9.9600	-37.809741	-14.896316	24.494276	-263.826469	827.147340	7.199386	7.646793	-45.000000	36.057253	-45.000000	-44.952677	2055.380273	-1727.736554	33.301533	66.755717	2179.853793	92.347952	12.057234	2.325704	13.489407	36.983985	-33.952528	-45.000000	-45.000000	-2073.228073	2065.471426	136.997046	165.072023	1451.231504	-331.889835	1.283109	-18.215707	
9.9700	-37.779453	-14.935218	24.535204	-263.436596	827.137565	7.149317	7.663481	-45.000000	36.088020	-45.000000	-44.979494	2055.396588	-1727.707760	33.332516	66.541650	2179.879256	92.396008	12.059066	2.302705	13.492406	36.985712	-33.965887	-45.000000	-45.000000	-2073.239703	2065.509975	136.962147	165.267559	1451.246258	-332.006512	1.294408	-18.248262	
9.9800	-37.750686	-14.968085	24.569406	-262.994071	827.152720	7.097057	7.688596	-45.000000	36.128026	-45.000000	-44.983944	2055.395541	-1727.698025	33.377374	66.311390	2179.897897	92.436275	12.052022	2.278783	13.479171	36.971495	-33.987537	-45.000000	-45.000000	-2073.250497	2065.548587	136.914947	165.481549	1451.259123	-332.149728	1.314529	-18.285891	
9.9900	-37.714971	-15.017025	24.618395	-262.493225	827.191882	7.044121	7.719171	-45.000000	36.171072	-45.000000	-44.979520	2055.408141	-1727.675106	33.410697	66.082848	2179.920987	92.465573	12.058625	2.247958	13.464267	36.965874	-33.987597	-45.000000	-45.000000	-2073.278226	2065.606312	136.866760	165.719719	1451.271486	-332.324255	1.339215	-18.327148	
10.0000	-37.675131	-15.070631	24.667271	-261.929403	827.253545	6.991679	7.761355	-45.000000	36.227503	-45.000000	-44.969258	2055.405217	-1727.666907	33.464562	65.834299	2179.935063	92.482745	12.054991	2.216023	13.424712	36.940565	-33.986049	-45.000000	-45.000000	-2073.308888	2065.656900	136.809144	165.983042	1451.281501	-332.532278	1.373419	-18.372732	
10.0100	-37.634387	-15.131510	24.723738	-261.297871	827.335317	6.940440	7.810228	-45.000000	36.278920	-45.000000	-44.942872	2055.416759	-1727.644684	33.510220	65.582146	2179.954165	92.484867	12.069651	2.176237	13.381345	36.925178	-33.979737	-45.000000	-45.000000	-2073.352239	2065.719931	136.752950	166.267696	1451.292874	-332.779477	1.415222	-18.423636	
10.0200	-37.598431	-15.188282	24.777261	-260.594716	827.434082	6.890865	7.867347	-45.000000	36.333214	-45.000000	-44.903418	2055.414586	-1727.636034	33.572563	65.316441	2179.972126	92.469867	12.079686	2.132945	13.319439	36.895497	-33.995758	-45.000000	-45.000000	-2073.395072	2065.774977	136.697265	166.573876	1451.301621	-333.068865	1.468529	-18.479550	
10.0300	-37.561588	-15.249064	24.838191	-259.816162	827.545953	6.843249	7.924028	-45.000000	36.378424	-45.000000	-44.840959	2055.427476	-1727.612576	33.626472	65.048908	2179.991579	92.436446	12.107408	2.083048	13.263227	36.880003	-34.024909	-45.000000	-45.000000	-2073.443541	2065.828121	136.649707	166.893303	1451.311193	-333.404827	1.532336	-18.541720	
10.0400	-37.525628	-15.310961	24.899302	-258.958865	827.666243	6.797876	7.979121	-45.000000	36.432035	-45.000000	-44.753924	2055.432902	-1727.594668	33.687024	64.774374	2180.009582	92.382992	12.134270	2.029270	13.204822	36.857980	-34.072201	-45.000000	-45.000000	-2073.488527	2065.874170	136.601798	167.225878	1451.317225	-333.790056	1.606594	-18.607018	
10.0500	-37.488985	-15.374545	24.962426	-258.019374	827.789619	6.755066	8.024214	-45.000000	36.482532	-45.000000	-44.629800	2055.452590	-1727.563567	33.737418	64.503272	2180.026201	92.308772	12.175566	1.970258	13.164349	36.849761	-34.135020	-45.000000	-45.000000	-2073.529511	2065.915538	136.553819	167.563260	1451.324677	-334.228192	1.692324	-18.677817	
10.0600	-37.458051	-15.432142	25.016762	-256.994671	827.910257	6.715209	8.047591	-45.000000	36.533852	-45.000000	-44.468638	2055.478447	-1727.534600	33.787146	64.233411	2180.037986	92.211149	12.218861	1.908322	13.149076	36.846029	-34.214784	-45.000000	-45.000000	-2073.557993	2065.954970	136.490986	167.897346	1451.329773	-334.726751	1.791020	-18.752437	
10.0700	-37.425856	-15.494160	25.068956	-255.881564	828.022259	6.678683	8.065590	-45.000000	36.592446	-45.000000	-44.269439	2055.514104	-1727.501608	33.832761	63.971525	2180.045366	92.089838	12.273599	1.842733	13.143334	36.846548	-34.295188	-45.000000	-45.000000	-2073.585303	2065.997335	136.421233	168.231255	1451.335911	-335.287302	1.902892	-18.831087	
10.0800	-37.392560	-15.562735	25.121846	-254.676910	828.119977	6.645762	8.074836	-45.000000	36.664627	-45.000000	-44.039566	2055.552431	-1727.471077	33.876149	63.713030	2180.050340	91.943733	12.332758	1.774067	13.146830	36.846876	-34.373001	-45.000000	-45.000000	-2073.611838	2066.045000	136.340922	168.565868	1451.338133	-335.908981	2.027894	-18.911183	
10.0900	-37.367452	-15.623403	25.167838	-253.377384	828.198370	6.616537	8.066859	-45.000000	36.726388	-45.000000	-43.773605	2055.602981	-1727.442759	33.916068	63.456335	2180.050935	91.770027	12.401006	1.702964	13.175212	36.857298	-34.471061	-45.000000	-45.000000	-2073.627802	2066.088599	136.247846	168.888481	1451.335396	-336.593457	2.169739	-18.994000	
